<?xml version="1.0" standalone="no"?>
<!DOCTYPE svg PUBLIC "-//W3C//DTD SVG 20010904//EN"
 "http://www.w3.org/TR/2001/REC-SVG-20010904/DTD/svg10.dtd">
<svg version="1.0" xmlns="http://www.w3.org/2000/svg"
 width="1177.000000pt" height="1177.000000pt" viewBox="0 0 1177.000000 1177.000000"
 preserveAspectRatio="xMidYMid meet">
<metadata>
Created by potrace 1.14, written by Peter Selinger 2001-2017
</metadata>
<g transform="translate(0.000000,1177.000000) scale(0.100000,-0.100000)"
fill="#000000" stroke="none">
<path d="M11180 11368 c-74 -44 -148 -87 -165 -97 -16 -9 -91 -53 -165 -97
-74 -45 -225 -134 -335 -199 -542 -320 -1152 -682 -1220 -725 -151 -95 -548
-331 -551 -327 -2 2 65 65 149 139 83 75 161 145 172 155 11 10 83 74 160 143
134 119 223 203 179 167 -31 -26 -41 -20 -14 8 l23 24 -2259 -5 c-1242 -3
-2479 -10 -2749 -15 -481 -9 -534 -13 -789 -53 -118 -19 -152 -19 -76 0 53 13
53 13 10 8 -144 -16 -500 -127 -704 -220 -391 -177 -735 -444 -990 -769 -302
-384 -476 -797 -553 -1312 -27 -185 -25 -581 5 -773 84 -531 272 -969 590
-1369 153 -193 419 -438 627 -578 360 -242 743 -396 1241 -498 21 -5 79 53
494 490 47 49 148 155 225 235 77 80 202 210 278 289 75 79 139 142 141 140 3
-4 -29 -56 -280 -451 -66 -102 -193 -303 -283 -445 -91 -142 -195 -305 -232
-363 -37 -58 -124 -193 -192 -300 -68 -107 -235 -369 -371 -582 -135 -213
-249 -396 -252 -405 -8 -23 385 373 1991 2007 132 135 470 478 750 763 281
285 511 522 513 527 2 4 -480 10 -1070 13 l-1073 4 -105 26 c-232 56 -406 170
-514 340 -20 31 -36 58 -36 61 0 3 -19 45 -42 93 l-42 88 0 160 -1 160 40 115
c39 116 54 143 142 256 66 85 250 234 288 234 8 0 16 4 19 9 3 5 18 12 33 16
16 3 35 12 43 19 8 8 31 16 50 20 19 3 67 13 105 23 64 15 231 17 2029 20
l1959 3 630 626 c347 344 639 629 648 633 30 10 1693 1651 1674 1650 -5 0 -71
-37 -145 -81z"/>
<path d="M3625 10510 c-42 -11 -1 -11 50 -1 34 7 35 9 10 9 -16 0 -43 -4 -60
-8z"/>
<path d="M8275 8117 c-70 -72 -270 -276 -444 -452 -536 -542 -1396 -1417
-1401 -1425 -3 -4 -262 -268 -575 -586 -314 -319 -603 -613 -643 -654 l-72
-75 1078 -6 c1046 -5 1080 -6 1167 -26 188 -44 310 -108 425 -224 66 -66 95
-105 128 -170 118 -232 116 -483 -3 -724 -138 -280 -398 -446 -757 -485 -64
-6 -738 -10 -1980 -10 l-1883 0 -295 -293 c-162 -160 -412 -406 -555 -546
-143 -140 -454 -446 -691 -680 -237 -234 -650 -642 -917 -906 -268 -264 -487
-484 -487 -488 0 -5 15 0 33 11 17 11 52 31 77 44 54 29 149 85 245 143 39 23
160 95 270 160 110 65 245 145 300 178 55 33 116 69 135 80 38 21 400 237 543
324 49 29 91 53 94 53 2 0 23 13 46 29 23 15 139 86 257 156 118 71 293 175
388 233 95 57 175 102 178 99 2 -2 -44 -46 -103 -98 -58 -52 -138 -124 -177
-160 -39 -37 -91 -83 -116 -104 -25 -20 -91 -79 -146 -131 -56 -52 -112 -103
-125 -113 -13 -11 -22 -22 -19 -25 3 -3 1252 -1 2775 4 2879 10 2803 9 3040
49 261 44 535 127 790 239 418 184 825 524 1093 911 186 269 338 623 407 951
40 185 45 259 45 600 0 294 -3 352 -20 446 -57 310 -107 480 -207 699 -163
358 -322 585 -602 866 -180 179 -395 340 -636 474 -263 147 -633 278 -969 345
l-60 12 -60 -64 c-34 -35 -153 -160 -266 -278 -113 -118 -333 -349 -489 -512
-155 -164 -287 -298 -291 -298 -9 0 44 88 159 267 106 163 191 296 306 478
113 179 302 474 390 610 28 44 79 125 114 180 34 55 111 177 172 270 60 94
129 202 153 240 23 39 91 147 151 240 155 244 168 265 163 271 -3 2 -62 -56
-133 -129z"/>
</g>
</svg>
